P2
7 15
120
022 079 017 040 100 082 018 
040 058 092 073 019 077 038 
028 064 038 040 046 087 071 
069 062 069 116 075 100 007 
089 039 017 010 117 010 011 
083 013 118 061 067 031 039 
046 014 032 116 001 049 015 
000 090 045 041 110 024 027 
000 052 063 023 051 080 083 
037 014 105 025 084 075 048 
063 012 106 055 062 028 022 
101 014 020 080 096 052 120 
110 024 101 012 051 083 053 
096 055 085 016 043 055 043 
030 022 050 003 056 105 027 
