P2
5 4
16
001 007 008 006 016 
011 010 006 004 014 
006 010 013 012 013 
003 011 009 000 001 
