P2
5 4
16
009 004 005 000 008
010 003 002 001 007
009 001 006 003 015
001 016 009 012 007